<?xml version="1.0" encoding="utf-8"?>
<!-- Generator: Adobe Illustrator 19.2.1, SVG Export Plug-In . SVG Version: 6.00 Build 0)  -->
<!DOCTYPE svg PUBLIC "-//W3C//DTD SVG 1.1//EN" "http://www.w3.org/Graphics/SVG/1.1/DTD/svg11.dtd">
<svg version="1.1" id="Layer_1" xmlns="http://www.w3.org/2000/svg" xmlns:xlink="http://www.w3.org/1999/xlink" x="0px" y="0px"
	 viewBox="0 0 130 22" style="enable-background:new 0 0 130 22;" xml:space="preserve">
<g>
	<path d="M6.7,9.6C4.9,9,3.6,8.6,3.6,7.1c0-1.6,1.5-2.2,2.8-2.2c1.1,0,2.3,0.6,3,1.4l1.9-2C10,3.1,8.2,2.6,6.6,2.6
		C3.7,2.6,0.7,4,0.7,7.3c0,3,2.1,4,4.1,4.6c2,0.6,3.7,1.1,3.7,2.8c0,1.7-1.6,2.4-2.9,2.4c-1.3,0-2.7-0.7-3.5-1.8l-2,1.9
		c1.3,1.5,3.4,2.3,5.5,2.3c3.2,0,5.9-1.7,5.9-5.1C11.4,11.2,8.7,10.3,6.7,9.6z"/>
	<path d="M26.1,13c0,1.9-0.9,3.9-3.6,3.9s-3.6-2-3.6-3.9V3H16v10.2c0,3.9,2.8,6.3,6.5,6.3c3.7,0,6.5-2.4,6.5-6.3v-5h-2.9V13z"/>
	<path d="M42.7,10.6L42.7,10.6c1.7-0.5,2.8-1.7,2.8-3.6c0-2.9-2.5-4-4.9-4h-6.3V19h5.8c3,0,6.1-1.2,6.1-4.7
		C46.1,12.2,44.7,10.8,42.7,10.6z M37.1,5.3h2.3c2.2,0,3.2,0.6,3.2,2c0,1.4-1,2.2-2.9,2.2h-2.5V5.3z M39.7,16.6h-2.6V12h2.7
		c2.3,0,3.5,0.6,3.5,2.3C43.3,16.3,41.2,16.6,39.7,16.6z"/>
	<polygon points="49.2,5.5 54.1,5.5 54.1,19 57,19 57,5.5 61.9,5.5 61.9,3 49.2,3 	"/>
	<path d="M75.3,7.6c0-3.4-2.9-4.6-5.9-4.6h-2.5v2.4h2.3c1.5,0,3.2,0.4,3.2,2.2c0,2-1.8,2.3-3.5,2.3h-2.1v2.3h1.8l3.7,6.8h3.5
		l-4.3-7.1C73.8,11.4,75.3,9.9,75.3,7.6z"/>
	<path d="M86.9,3l-7,16.1h3.2l1.5-3.7h7L93,19h3.3L89.4,3H86.9z M85.5,12.9l2.5-6.5l2.5,6.5H85.5z"/>
	<polygon points="113.3,3 109.4,3 102.7,9.9 102.6,9.9 102.6,3 99.8,3 99.8,15.3 102.6,15.3 102.6,11 102.7,11 109.8,19 113.8,19 
		105.8,10.4 	"/>
	<polygon points="117.3,3 117.3,5.5 122.2,5.5 122.2,19 125.1,19 125.1,5.5 130,5.5 130,3 	"/>
</g>
</svg>
