<?xml version="1.0" encoding="utf-8"?>
<!-- Generator: Adobe Illustrator 20.0.0, SVG Export Plug-In . SVG Version: 6.00 Build 0)  -->
<!DOCTYPE svg PUBLIC "-//W3C//DTD SVG 1.1//EN" "http://www.w3.org/Graphics/SVG/1.1/DTD/svg11.dtd">
<svg version="1.1" id="Layer_1" xmlns="http://www.w3.org/2000/svg" xmlns:xlink="http://www.w3.org/1999/xlink" x="0px" y="0px"
	 viewBox="0 0 513 211.2" style="enable-background:new 0 0 513 211.2;" xml:space="preserve">
<style type="text/css">
	.st0{fill:#575757;}
	.st1{fill:#FFFFFF;}
</style>
<path class="st0" d="M513,211.2H60c-33.1,0-60-26.9-60-60V0h453c33.1,0,60,26.9,60,60V211.2z"/>
<g>
	<path class="st1" d="M60.1,58.7H95c8.3,0,15.2,1.7,20.7,5.2c5.5,3.5,9.4,8.8,11.7,15.9c0.4,1.3,0.7,2.6,1,4.1s0.6,3.1,0.8,5
		c0.2,1.9,0.4,4.2,0.5,6.9c0.1,2.7,0.1,5.9,0.1,9.8c0,3.9,0,7.1-0.1,9.8s-0.3,5-0.5,6.9c-0.2,1.9-0.5,3.6-0.8,5
		c-0.3,1.4-0.7,2.8-1,4.1c-2.3,7.1-6.2,12.4-11.7,15.9c-5.5,3.5-12.4,5.2-20.7,5.2H60.1c-0.9,0-1.4-0.5-1.4-1.4V60.1
		C58.7,59.2,59.2,58.7,60.1,58.7z M79.8,134.5h10.6c4.7,0,8.5-0.8,11.3-2.3c2.9-1.5,4.9-4.2,6.1-8.1c0.3-0.6,0.5-1.4,0.7-2.3
		c0.2-0.9,0.3-2,0.5-3.4c0.1-1.4,0.2-3.1,0.3-5.2c0-2.1,0.1-4.6,0.1-7.7s0-5.6-0.1-7.6c0-2-0.1-3.7-0.3-5.1
		c-0.1-1.4-0.3-2.5-0.5-3.4c-0.2-0.9-0.4-1.7-0.7-2.4c-1.2-3.9-3.2-6.6-6.1-8.1c-2.9-1.5-6.6-2.3-11.3-2.3H79.8
		c-0.6,0-0.8,0.3-0.8,0.8v56C79,134.2,79.3,134.5,79.8,134.5z"/>
	<path class="st1" d="M147,58.7h17.5c0.9,0,1.4,0.5,1.4,1.4v91.1c0,0.9-0.5,1.4-1.4,1.4H147c-0.9,0-1.4-0.5-1.4-1.4V60.1
		C145.6,59.2,146.1,58.7,147,58.7z"/>
	<path class="st1" d="M182.7,126.5c-0.3-1.6-0.6-3.3-0.8-5.2s-0.3-4.1-0.4-6.6s-0.1-5.5-0.1-9s0-6.5,0.1-9c0.1-2.5,0.2-4.7,0.4-6.6
		c0.2-1.9,0.4-3.7,0.8-5.2c0.3-1.6,0.8-3.2,1.3-4.8c2.4-7.6,6.6-13.3,12.8-17.1c6.1-3.8,13.4-5.7,21.7-5.7c4.4,0,8.4,0.5,12,1.5
		c3.6,1,6.8,2.4,9.6,4.2c2.8,1.8,5.2,3.9,7.2,6.3c2,2.4,3.5,5.1,4.6,7.9c0.5,0.9,0.3,1.6-0.6,2.1l-14.8,6.2c-1,0.3-1.7,0-1.9-0.7
		c-1.8-3.2-4-5.6-6.6-7.2c-2.5-1.6-5.7-2.4-9.6-2.4c-4,0-7.3,0.9-9.8,2.8c-2.5,1.9-4.2,4.4-5.2,7.7c-0.3,0.8-0.5,1.8-0.7,2.8
		c-0.2,1.1-0.3,2.3-0.5,3.9c-0.1,1.5-0.2,3.4-0.3,5.5c0,2.2-0.1,4.8-0.1,7.8s0,5.7,0.1,7.9s0.1,4.1,0.3,5.6c0.1,1.5,0.3,2.8,0.5,3.9
		c0.2,1.1,0.4,2,0.7,2.8c1,3.2,2.8,5.7,5.3,7.6c2.5,1.8,5.9,2.8,10,2.8c3.5,0,6.6-0.8,9.4-2.5c2.8-1.7,4.6-4,5.7-7.2
		c0.4-1.2,0.6-2.5,0.8-4c0.2-1.5,0.3-3.2,0.3-5.2c0-0.6-0.3-0.8-0.8-0.8h-12.7c-0.9,0-1.4-0.5-1.4-1.4v-13.2c0-0.9,0.5-1.4,1.4-1.4
		h32.3c0.9,0,1.4,0.5,1.4,1.4v7.7c0,4.1-0.2,8.1-0.6,11.7s-1,6.8-1.8,9.4c-2.4,7.5-6.6,13.3-12.6,17.4s-13.2,6.1-21.6,6.1
		s-15.6-1.9-21.7-5.7c-6.1-3.8-10.4-9.5-12.8-17.1C183.4,129.6,183,128,182.7,126.5z"/>
	<path class="st1" d="M271.9,58.7h17.5c0.9,0,1.4,0.5,1.4,1.4v91.1c0,0.9-0.5,1.4-1.4,1.4h-17.5c-0.9,0-1.4-0.5-1.4-1.4V60.1
		C270.5,59.2,271,58.7,271.9,58.7z"/>
	<path class="st1" d="M328.1,151.2V77.6c0-0.6-0.3-0.8-0.8-0.8h-23.7c-0.9,0-1.4-0.5-1.4-1.4V60.1c0-0.9,0.5-1.4,1.4-1.4h69.4
		c0.9,0,1.4,0.5,1.4,1.4v15.3c0,0.9-0.5,1.4-1.4,1.4h-23.7c-0.6,0-0.8,0.3-0.8,0.8v73.6c0,0.9-0.5,1.4-1.4,1.4h-17.5
		C328.5,152.5,328.1,152.1,328.1,151.2z"/>
	<path class="st1" d="M396,148.4c-6.1-3.8-10.4-9.5-12.8-17.1c-0.6-1.7-1-3.3-1.3-4.8c-0.3-1.6-0.6-3.3-0.8-5.2s-0.3-4.1-0.4-6.6
		s-0.1-5.5-0.1-9s0-6.5,0.1-9c0.1-2.5,0.2-4.7,0.4-6.6c0.2-1.9,0.4-3.7,0.8-5.2c0.3-1.6,0.8-3.2,1.3-4.8c2.4-7.5,6.6-13.2,12.8-17
		c6.1-3.8,13.3-5.7,21.5-5.7c8.2,0,15.3,1.9,21.5,5.7c6.1,3.8,10.4,9.5,12.8,17c0.6,1.7,1,3.3,1.3,4.8c0.3,1.6,0.6,3.3,0.8,5.2
		c0.2,1.9,0.3,4.1,0.4,6.6c0.1,2.5,0.1,5.5,0.1,9s0,6.5-0.1,9s-0.2,4.7-0.4,6.6c-0.2,1.9-0.4,3.7-0.8,5.2c-0.3,1.6-0.8,3.2-1.3,4.8
		c-2.4,7.6-6.6,13.3-12.8,17.1c-6.1,3.8-13.3,5.7-21.5,5.7C409.3,154.1,402.1,152.2,396,148.4z M427,133.4c2.5-1.8,4.2-4.4,5.2-7.6
		c0.3-0.8,0.5-1.8,0.7-2.8c0.2-1.1,0.3-2.3,0.5-3.9c0.1-1.5,0.2-3.4,0.3-5.6s0.1-4.8,0.1-7.9s0-5.7-0.1-7.9s-0.1-4.1-0.3-5.6
		c-0.1-1.5-0.3-2.8-0.5-3.9c-0.2-1.1-0.4-2-0.7-2.8c-1-3.2-2.8-5.8-5.2-7.6c-2.5-1.8-5.7-2.8-9.5-2.8s-7,0.9-9.5,2.8
		c-2.5,1.8-4.2,4.4-5.2,7.6c-0.3,0.8-0.5,1.8-0.7,2.8c-0.2,1.1-0.3,2.3-0.5,3.9c-0.1,1.5-0.2,3.4-0.3,5.6s-0.1,4.8-0.1,7.9
		s0,5.7,0.1,7.9s0.1,4.1,0.3,5.6c0.1,1.5,0.3,2.8,0.5,3.9c0.2,1.1,0.4,2,0.7,2.8c1,3.2,2.8,5.7,5.2,7.6c2.5,1.8,5.7,2.8,9.5,2.8
		S424.5,135.2,427,133.4z"/>
</g>
</svg>
