<?xml version="1.0" encoding="utf-8"?>
<!-- Generator: Adobe Illustrator 19.2.1, SVG Export Plug-In . SVG Version: 6.00 Build 0)  -->
<!DOCTYPE svg PUBLIC "-//W3C//DTD SVG 1.1//EN" "http://www.w3.org/Graphics/SVG/1.1/DTD/svg11.dtd">
<svg version="1.1" id="Layer_1" xmlns="http://www.w3.org/2000/svg" xmlns:xlink="http://www.w3.org/1999/xlink" x="0px" y="0px"
	 viewBox="0 0 304.5 130.9" style="enable-background:new 0 0 304.5 130.9;" xml:space="preserve">
<style type="text/css">
	.st0{fill:#231F20;}
</style>
<path class="st0" d="M85.2,0c6.4,0,11.4,5.1,11.4,11.5c0,6.1-5,11.3-11.4,11.3c-6.3,0-11.4-5.1-11.4-11.3C73.8,5.1,79,0,85.2,0z
	 M76.1,102.4V33.9h18.5v68.4H76.1z"/>
<path class="st0" d="M114.6,101.7c1.3,7.5,7.2,12.9,16,12.9c11.7,0,18.2-5.8,18.2-19.1v-5c-2.8,4.5-9.2,8.8-19.1,8.8
	c-18.2,0-31.9-14.1-31.9-33.2c0-18.1,13.1-33.4,31.9-33.4c10.9,0,17.1,4.7,19.5,9.3v-8.1H167V95c0,18.8-10.2,35.9-35.9,35.9
	c-18.8,0-31.3-11.7-33.2-24.8L114.6,101.7z M149.1,66.1c0-10.6-7.2-17.2-16.1-17.2c-9.2,0-16.4,6.7-16.4,17.2
	c0,10.7,6.8,17.4,16.4,17.4C142.4,83.5,149.1,76.7,149.1,66.1z"/>
<path class="st0" d="M181.5,0c6.4,0,11.4,5.1,11.4,11.5c0,6.1-5,11.3-11.4,11.3c-6.3,0-11.4-5.1-11.4-11.3
	C170.1,5.1,175.2,0,181.5,0z M172.3,102.4V33.9h18.5v68.4H172.3z"/>
<path class="st0" d="M221.6,33.9h13.8v16.4h-13.8V79c0,6,2.8,7.9,8.1,7.9c2.2,0,4.7-0.3,5.7-0.6v15.3c-1.7,0.7-5,1.7-10.4,1.7
	c-13.4,0-21.7-7.9-21.7-21.1V50.4h-12.4V33.9h3.5c7.2,0,10.6-4.7,10.6-10.9v-9.6h16.7V33.9z"/>
<path class="st0" d="M304.5,68.2c0,21-15.4,36.3-35.9,36.3c-20.4,0-35.9-15.3-35.9-36.3c0-21.1,15.4-36.3,35.9-36.3
	C289,31.9,304.5,47,304.5,68.2z M286,68.2c0-12.9-8.3-19.5-17.4-19.5c-9,0-17.4,6.5-17.4,19.5c0,12.8,8.3,19.5,17.4,19.5
	C277.6,87.6,286,81.1,286,68.2z"/>
<path class="st0" d="M52.2,1.7v39.1c-1.9-3.6-7.5-8.5-19.3-8.5C13.5,32.3,0,48,0,68c0,20.7,13.9,36,33.4,36c8.8,0,15.5-3.8,18.8-8.9
	v7.2h18.2V1.7H52.2z M35.6,87.5c-9.7,0-17-7.2-17-19.5s7.5-19.2,17-19.2c9.5,0,16.8,6.8,16.8,19.1C52.4,80.3,45.1,87.5,35.6,87.5z"
	/>
</svg>
