<?xml version="1.0" encoding="utf-8"?>
<!-- Generator: Adobe Illustrator 19.2.1, SVG Export Plug-In . SVG Version: 6.00 Build 0)  -->
<!DOCTYPE svg PUBLIC "-//W3C//DTD SVG 1.1//EN" "http://www.w3.org/Graphics/SVG/1.1/DTD/svg11.dtd">
<svg version="1.1" id="Layer_1" xmlns="http://www.w3.org/2000/svg" xmlns:xlink="http://www.w3.org/1999/xlink" x="0px" y="0px"
	 viewBox="0 0 28 28" style="enable-background:new 0 0 28 28;" xml:space="preserve">
<style type="text/css">
	.st0{fill:#231F20;}
</style>
<g>
	<path class="st0" d="M14,2c6.6,0,12,5.4,12,12s-5.4,12-12,12S2,20.6,2,14S7.4,2,14,2 M14,0C6.3,0,0,6.3,0,14s6.3,14,14,14
		s14-6.3,14-14S21.7,0,14,0L14,0z"/>
	<g>
		<g>
			<g>
				<path class="st0" d="M11.8,14.4c0,1.4,1.1,1.9,2.3,1.9c0.8,0,2-0.2,2-1.3c0-1.1-1.6-1.3-3.1-1.7c-1.5-0.4-3.1-1-3.1-3
					c0-2.1,2-3.1,3.9-3.1c2.2,0,4.2,0.9,4.2,3.3h-2.2c-0.1-1.3-1-1.6-2.1-1.6c-0.7,0-1.6,0.3-1.6,1.2c0,0.8,0.5,0.9,3.1,1.6
					c0.8,0.2,3.1,0.7,3.1,3c0,1.9-1.5,3.3-4.3,3.3c-2.3,0-4.5-1.1-4.4-3.7H11.8z"/>
			</g>
		</g>
		<rect x="9.6" y="19" class="st0" width="8.7" height="1.7"/>
	</g>
</g>
</svg>
