<?xml version="1.0" encoding="utf-8"?>
<!-- Generator: Adobe Illustrator 19.2.1, SVG Export Plug-In . SVG Version: 6.00 Build 0)  -->
<!DOCTYPE svg PUBLIC "-//W3C//DTD SVG 1.1//EN" "http://www.w3.org/Graphics/SVG/1.1/DTD/svg11.dtd">
<svg version="1.1" id="Layer_1" xmlns="http://www.w3.org/2000/svg" xmlns:xlink="http://www.w3.org/1999/xlink" x="0px" y="0px"
	 viewBox="0 0 232 30.4" style="enable-background:new 0 0 232 30.4;" xml:space="preserve">
<style type="text/css">
	.st0{fill:#231F20;}
</style>
<g>
	<path class="st0" d="M16.9,6.8c-1.1-1.4-3.3-2.5-5.3-2.5c-2.4,0-5.1,1.1-5.1,4c0,2.7,2.2,3.4,5.5,4.5c3.7,1.1,8.5,2.8,8.5,8.5
		c0,6.2-4.9,9.2-10.5,9.2c-3.8,0-7.6-1.4-9.9-4.1l3.7-3.4c1.4,2,4,3.2,6.3,3.2c2.4,0,5.2-1.2,5.2-4.3c0-3-3-3.9-6.7-5
		c-3.5-1.1-7.3-2.8-7.3-8.2C1.3,2.6,6.6,0,11.9,0c2.9,0,6.2,1,8.4,3.1L16.9,6.8z"/>
	<path class="st0" d="M51.7,18.3c0,7-5,11.4-11.6,11.4c-6.6,0-11.6-4.4-11.6-11.4V0h5.2v18.1c0,3.4,1.6,6.9,6.5,6.9s6.5-3.6,6.5-6.9
		V0h5.2V18.3z"/>
	<path class="st0" d="M60.3,0h11.3c4.4,0,8.9,2,8.9,7.3c0,3.3-2,5.4-5,6.3v0.1c3.6,0.5,6.3,2.9,6.3,6.8c0,6.3-5.5,8.4-11,8.4H60.3V0
		z M65.5,11.8h4.6c3.4,0,5.3-1.4,5.3-3.9c0-2.6-1.8-3.6-5.7-3.6h-4.1V11.8z M65.5,24.6h4.6c2.7,0,6.5-0.5,6.5-4.3
		c0-3-2.1-4.1-6.3-4.1h-4.8V24.6z"/>
	<path class="st0" d="M96.3,4.5h-8.9V0h22.9v4.5h-8.9v24.4h-5.2V4.5z"/>
	<path class="st0" d="M118.1,0h10.1c5.4,0,10.7,2.2,10.7,8.3c0,4.2-2.6,6.9-6.6,7.8l7.7,12.8h-6.2L127,16.7h-3.8v12.3h-5.1V0z
		 M127.4,12.5c2.9,0,6.2-0.7,6.2-4.2c0-3.1-3.1-3.9-5.8-3.9h-4.7v8.1H127.4z"/>
	<path class="st0" d="M157.7,0h4.5l12.5,28.9h-5.9l-2.7-6.6h-12.5l-2.6,6.6h-5.8L157.7,0z M164.2,17.9l-4.5-11.8l-4.5,11.8H164.2z"
		/>
	<path class="st0" d="M179,0h5.1v12.5h0.1L196.4,0h6.9l-13.5,13.4l14.4,15.6H197l-12.7-14.5h-0.1v14.5H179V0z"/>
	<path class="st0" d="M218,4.5h-8.9V0H232v4.5h-8.9v24.4H218V4.5z"/>
</g>
</svg>
